<svg width="18" height="19" viewBox="0 0 18 19" fill="none" xmlns="http://www.w3.org/2000/svg">
<path fill-rule="evenodd" clip-rule="evenodd" d="M15.9999 8C15.9999 11.3137 13.3137 14 9.99995 14C6.68624 14 3.99995 11.3137 3.99995 8C3.99995 4.68629 6.68624 2 9.99995 2C13.3137 2 15.9999 4.68629 15.9999 8ZM17.9999 8C17.9999 12.4183 14.4182 16 9.99995 16C8.15272 16 6.45173 15.3739 5.09758 14.3224L1.41592 18.0041L0.00170898 16.5898L3.68264 12.9089C2.62804 11.5537 1.99995 9.8502 1.99995 8C1.99995 3.58172 5.58167 0 9.99995 0C14.4182 0 17.9999 3.58172 17.9999 8Z" fill="white"/>
</svg>
